<svg aria-hidden="true" style="position: absolute; width: 0; height: 0; overflow: hidden;" version="1.1" xmlns="http://www.w3.org/2000/svg" xmlns:xlink="http://www.w3.org/1999/xlink">
<defs>
<symbol id="icon_minus" viewBox="0 0 32 32">
<path d="M16 3.667c-6.811 0-12.333 5.522-12.333 12.333s5.522 12.333 12.333 12.333c6.811 0 12.333-5.522 12.333-12.333s-5.522-12.333-12.333-12.333zM1.667 16c0-7.916 6.417-14.333 14.333-14.333s14.333 6.417 14.333 14.333c0 7.916-6.417 14.333-14.333 14.333s-14.333-6.417-14.333-14.333z"></path>
<path d="M22.667 16c0 0.552-0.448 1-1 1h-11.314c-0.552 0-1-0.448-1-1s0.448-1 1-1h11.314c0.552 0 1 0.448 1 1z"></path>
</symbol>
<symbol id="icon_plus" viewBox="0 0 32 32">
<path d="M16 2.667c-7.352 0-13.333 5.981-13.333 13.333s5.981 13.333 13.333 13.333c7.352 0 13.333-5.981 13.333-13.333s-5.981-13.333-13.333-13.333zM16 4.667c6.271 0 11.333 5.062 11.333 11.333s-5.062 11.333-11.333 11.333c-6.271 0-11.333-5.062-11.333-11.333s5.062-11.333 11.333-11.333zM15.984 9.32c-0.546 0.009-0.984 0.453-0.984 1 0 0.005 0 0.009 0 0.014v-0.001 4.667h-4.667c-0.004-0-0.009-0-0.014-0-0.552 0-1 0.448-1 1s0.448 1 1 1c0.005 0 0.010-0 0.015-0h4.666v4.667c-0 0.004-0 0.009-0 0.014 0 0.552 0.448 1 1 1s1-0.448 1-1c0-0.005-0-0.010-0-0.015v0.001-4.667h4.667c0.004 0 0.009 0 0.014 0 0.552 0 1-0.448 1-1s-0.448-1-1-1c-0.005 0-0.010 0-0.015 0h-4.666v-4.667c0-0.004 0-0.008 0-0.013 0-0.552-0.448-1-1-1-0.005 0-0.011 0-0.016 0h0.001z"></path>
</symbol>
</defs>
</svg>
